<svg xmlns="http://www.w3.org/2000/svg" viewBox="0 0 1180 880" font-family="Segoe UI, Helvetica, Arial, sans-serif">
<rect x="0" y="0" width="1180" height="880" fill="#0b1220"/>
<defs>
<linearGradient id="g0" x1="0" y1="0" x2="0" y2="1"><stop offset="0" stop-color="#3b82f6"/><stop offset="1" stop-color="#1e3a8a"/></linearGradient>
<linearGradient id="g1" x1="0" y1="0" x2="0" y2="1"><stop offset="0" stop-color="#0ea5a4"/><stop offset="1" stop-color="#0f766e"/></linearGradient>
<linearGradient id="g2" x1="0" y1="0" x2="0" y2="1"><stop offset="0" stop-color="#22c55e"/><stop offset="1" stop-color="#15803d"/></linearGradient>
<linearGradient id="g3" x1="0" y1="0" x2="0" y2="1"><stop offset="0" stop-color="#f59e0b"/><stop offset="1" stop-color="#b45309"/></linearGradient>
<linearGradient id="g4" x1="0" y1="0" x2="0" y2="1"><stop offset="0" stop-color="#fb7185"/><stop offset="1" stop-color="#be123c"/></linearGradient>
<linearGradient id="g5" x1="0" y1="0" x2="0" y2="1"><stop offset="0" stop-color="#a78bfa"/><stop offset="1" stop-color="#6d28d9"/></linearGradient>
<linearGradient id="g6" x1="0" y1="0" x2="0" y2="1"><stop offset="0" stop-color="#64748b"/><stop offset="1" stop-color="#334155"/></linearGradient>
<filter id="soft" x="-20%" y="-20%" width="140%" height="160%"><feDropShadow dx="0" dy="8" stdDeviation="10" flood-color="#0f172a" flood-opacity="0.28"/></filter>
<marker id="arr" viewBox="0 0 10 10" refX="8" refY="5" markerWidth="7" markerHeight="7" orient="auto"><path d="M0 0 L10 5 L0 10 z" fill="#94a3b8"/></marker>
</defs>
<text x="590.0" y="46" fill="#e2e8f0" font-size="30" font-weight="700" text-anchor="middle">Support Integrity Auditor — Layered Architecture</text>
<text x="590.0" y="74" fill="#94a3b8" font-size="15" text-anchor="middle">data flows top → bottom; calibration is learned once and reused at inference</text>
<path d="M96 92 L70 92 L70 490 L96 490" fill="none" stroke="#475569" stroke-width="2"/>
<text x="60" y="291.0" fill="#cbd5e1" font-size="13" font-weight="600" text-anchor="middle" transform="rotate(-90 60 291.0)">SELF-SUPERVISED  LABELLING</text>
<path d="M96 508 L70 508 L70 594 L96 594" fill="none" stroke="#475569" stroke-width="2"/>
<text x="60" y="551.0" fill="#cbd5e1" font-size="13" font-weight="600" text-anchor="middle" transform="rotate(-90 60 551.0)">SUPERVISED  MODEL</text>
<path d="M96 612 L70 612 L70 802 L96 802" fill="none" stroke="#475569" stroke-width="2"/>
<text x="60" y="707.0" fill="#cbd5e1" font-size="13" font-weight="600" text-anchor="middle" transform="rotate(-90 60 707.0)">EVIDENCE  +  SERVING</text>
<rect x="312" y="108" width="720" height="78" rx="14" fill="#1e3a8a" opacity="0.55"/>
<rect x="300" y="96" width="720" height="78" rx="14" fill="url(#g0)" filter="url(#soft)"/>
<rect x="300" y="96" width="6" height="78" rx="3" fill="#ffffff" opacity="0.85"/>
<text x="326" y="128" fill="#ffffff" font-size="18" font-weight="700">1  DATA SOURCE</text>
<text x="326" y="153" fill="#f1f5f9" font-size="13" opacity="0.95">CRM tickets — text (subject, description) + metadata (priority, channel, email, resolution time)</text>
<line x1="660.0" y1="186" x2="660.0" y2="198" stroke="#94a3b8" stroke-width="2.5" marker-end="url(#arr)"/>
<rect x="312" y="212" width="720" height="78" rx="14" fill="#0f766e" opacity="0.55"/>
<rect x="300" y="200" width="720" height="78" rx="14" fill="url(#g1)" filter="url(#soft)"/>
<rect x="300" y="200" width="6" height="78" rx="3" fill="#ffffff" opacity="0.85"/>
<text x="326" y="232" fill="#ffffff" font-size="18" font-weight="700">2  SEVERITY SIGNALS</text>
<text x="326" y="257" fill="#f1f5f9" font-size="13" opacity="0.95">Rule-based NLP   •   Resolution-time proxy   •   (optional) embedding cluster</text>
<line x1="660.0" y1="290" x2="660.0" y2="302" stroke="#94a3b8" stroke-width="2.5" marker-end="url(#arr)"/>
<rect x="312" y="316" width="720" height="78" rx="14" fill="#15803d" opacity="0.55"/>
<rect x="300" y="304" width="720" height="78" rx="14" fill="url(#g2)" filter="url(#soft)"/>
<rect x="300" y="304" width="6" height="78" rx="3" fill="#ffffff" opacity="0.85"/>
<text x="326" y="336" fill="#ffffff" font-size="18" font-weight="700">3  FUSION + CALIBRATION</text>
<text x="326" y="361" fill="#f1f5f9" font-size="13" opacity="0.95">standardise → weighted fuse → marginal-matched severity levels   (saved as calibration.json)</text>
<line x1="660.0" y1="394" x2="660.0" y2="406" stroke="#94a3b8" stroke-width="2.5" marker-end="url(#arr)"/>
<rect x="312" y="420" width="720" height="78" rx="14" fill="#b45309" opacity="0.55"/>
<rect x="300" y="408" width="720" height="78" rx="14" fill="url(#g3)" filter="url(#soft)"/>
<rect x="300" y="408" width="6" height="78" rx="3" fill="#ffffff" opacity="0.85"/>
<text x="326" y="440" fill="#ffffff" font-size="18" font-weight="700">4  PSEUDO-LABELS</text>
<text x="326" y="465" fill="#f1f5f9" font-size="13" opacity="0.95">inferred severity vs assigned priority  →  Hidden Crisis  /  False Alarm  /  Consistent</text>
<line x1="660.0" y1="498" x2="660.0" y2="510" stroke="#94a3b8" stroke-width="2.5" marker-end="url(#arr)"/>
<rect x="312" y="524" width="720" height="78" rx="14" fill="#be123c" opacity="0.55"/>
<rect x="300" y="512" width="720" height="78" rx="14" fill="url(#g4)" filter="url(#soft)"/>
<rect x="300" y="512" width="6" height="78" rx="3" fill="#ffffff" opacity="0.85"/>
<text x="326" y="544" fill="#ffffff" font-size="18" font-weight="700">5  FINE-TUNED CLASSIFIER</text>
<text x="326" y="569" fill="#f1f5f9" font-size="13" opacity="0.95">DeBERTa-v3-small + class-weighted loss   (input = text + channel + customer tier)</text>
<line x1="660.0" y1="602" x2="660.0" y2="614" stroke="#94a3b8" stroke-width="2.5" marker-end="url(#arr)"/>
<rect x="312" y="628" width="720" height="78" rx="14" fill="#6d28d9" opacity="0.55"/>
<rect x="300" y="616" width="720" height="78" rx="14" fill="url(#g5)" filter="url(#soft)"/>
<rect x="300" y="616" width="6" height="78" rx="3" fill="#ffffff" opacity="0.85"/>
<text x="326" y="648" fill="#ffffff" font-size="18" font-weight="700">6  EVIDENCE DOSSIER + VALIDATOR</text>
<text x="326" y="673" fill="#f1f5f9" font-size="13" opacity="0.95">schema dossier per flagged ticket  •  every value traced to a field  •  validator drops untraceable</text>
<line x1="660.0" y1="706" x2="660.0" y2="718" stroke="#94a3b8" stroke-width="2.5" marker-end="url(#arr)"/>
<rect x="312" y="732" width="720" height="78" rx="14" fill="#334155" opacity="0.55"/>
<rect x="300" y="720" width="720" height="78" rx="14" fill="url(#g6)" filter="url(#soft)"/>
<rect x="300" y="720" width="6" height="78" rx="3" fill="#ffffff" opacity="0.85"/>
<text x="326" y="752" fill="#ffffff" font-size="18" font-weight="700">7  DELIVERY — STREAMLIT APP</text>
<text x="326" y="777" fill="#f1f5f9" font-size="13" opacity="0.95">single-ticket auditor   •   batch CSV   •   mismatch dashboard   •   severity-delta heatmap</text>
<text x="1050" y="343.0" fill="#22c55e" font-size="12" font-weight="600">calibration.json</text>
<path d="M1044 349.0 C 1140 424, 1140 472, 1044 551.0" fill="none" stroke="#22c55e" stroke-width="1.6" stroke-dasharray="5 4" marker-end="url(#arr)"/>
</svg>